<?xml version="1.0" encoding="UTF-8" standalone="no"?>
<svg
   xmlns:dc="http://purl.org/dc/elements/1.1/"
   xmlns:cc="http://creativecommons.org/ns#"
   xmlns:rdf="http://www.w3.org/1999/02/22-rdf-syntax-ns#"
   xmlns:svg="http://www.w3.org/2000/svg"
   xmlns="http://www.w3.org/2000/svg"
   id="svg8"
   version="1.1"
   viewBox="0 0 1083.7333 1083.7334"
   height="4096"
   width="4096">
  <defs
     id="defs2" />
  <metadata
     id="metadata5">
    <rdf:RDF>
      <cc:Work
         rdf:about="">
        <dc:format>image/svg+xml</dc:format>
        <dc:type
           rdf:resource="http://purl.org/dc/dcmitype/StillImage" />
        <dc:title></dc:title>
      </cc:Work>
    </rdf:RDF>
  </metadata>
  <g
     transform="translate(0,786.73335)"
     id="layer1">
    <g
       transform="translate(151.17704,-314.54674)"
       id="g4572">
      <g
         id="layer3"
         transform="matrix(1.8062233,0,0,-10.83734,-151.17704,2746.5027)">
        <rect
           style="opacity:1;fill:#2656e4;fill-opacity:1;stroke:none;stroke-width:0.24548332;stroke-linecap:butt;stroke-linejoin:miter;stroke-miterlimit:4;stroke-dasharray:none;stroke-opacity:1;paint-order:normal"
           id="rect8572"
           width="600"
           height="100"
           x="3.5527137e-015"
           y="197" />
      </g>
      <g
         id="layer1-9"
         transform="matrix(6,0,0,6,-1409.31,-1412.3204)">
        <g
           id="g8542"
           transform="matrix(0.43647667,0,0,0.43647502,195.63656,132.78231)">
          <path
             id="path8450"
             d="m 190.41953,316.09513 v -68.73272 h 97.37081 v 68.73272 z m 0,0"
             style="fill:#0377bc;stroke-width:0.33560771" />
          <path
             id="path8452"
             d="m 190.41953,230.17956 h 97.37081 c 3.16336,0 5.72761,2.56425 5.72761,5.72762 v 5.72761 c 0,3.16337 -2.56425,5.72762 -5.72761,5.72762 h -97.37081 c -3.16336,0 -5.72761,-2.56425 -5.72761,-5.72762 v -5.72761 c 0,-3.16337 2.56425,-5.72762 5.72761,-5.72762 z m 0,0"
             style="fill:#283593;stroke-width:0.33560771" />
          <path
             id="path8454"
             d="m 190.41953,316.09513 h 97.37081 c 3.16336,0 5.72761,2.56425 5.72761,5.72762 v 5.72761 c 0,3.16337 -2.56425,5.72762 -5.72761,5.72762 h -97.37081 c -3.16336,0 -5.72761,-2.56425 -5.72761,-5.72762 v -5.72761 c 0,-3.16337 2.56425,-5.72762 5.72761,-5.72762 z m 0,0"
             style="fill:#283593;stroke-width:0.33560771" />
          <path
             id="path8456"
             d="m 190.41953,316.09513 v -68.73272 h 88.77872 v 68.73272 z m 0,0"
             style="fill:#02a9f4;stroke-width:0.33560771" />
          <path
             id="path8458"
             d="m 190.41953,333.27798 c -0.001,3.03882 1.20478,5.9531 3.35346,8.10178 2.14867,2.14868 5.06295,3.35477 8.10178,3.35345 h 74.46033 c 3.03751,0.001 5.9518,-1.20477 8.10047,-3.35345 2.14868,-2.14868 3.35477,-5.06296 3.35477,-8.10178 z m 0,0"
             style="fill:#02a9f4;stroke-width:0.33560771" />
          <path
             id="path8460"
             d="m 287.79034,230.17956 h -97.37081 c 0,-6.86947 4.31833,-12.99693 10.78796,-15.30817 l 18.51741,-6.61383 c 6.46963,-2.30993 10.78795,-8.4387 10.78795,-15.30817 h 17.18285 c 0,6.86947 4.31833,12.99824 10.78796,15.30817 l 18.51872,6.61383 c 6.46963,2.31124 10.78796,8.4387 10.78796,15.30817 z m 0,0"
             style="fill:#0377bc;stroke-width:0.33560771" />
          <path
             id="path8462"
             d="m 279.19825,230.17956 h -88.77872 c -0.156,-6.63219 3.73888,-12.69279 9.83619,-15.30817 l 20.69231,-6.61383 c 6.09731,-2.61407 9.9922,-8.67467 9.83619,-15.30817 h 15.66738 c -0.15601,6.6335 3.73888,12.69279 9.83619,15.30817 l 13.07428,6.61383 c 6.09731,2.61538 9.99219,8.67598 9.83618,15.30817 z m 0,0"
             style="fill:#02a9f4;stroke-width:0.33560771" />
          <path
             id="path8464"
             d="m 252.739,182.05525 -1.71868,8.59208 c -0.26744,1.3385 -1.44338,2.30206 -2.80941,2.30206 h -18.21327 c -1.36602,0 -2.54065,-0.96356 -2.80809,-2.30206 l -1.71868,-8.59208 c -0.1678,-0.84033 0.0498,-1.71344 0.59387,-2.37678 0.54405,-0.66335 1.35685,-1.04747 2.21423,-1.04747 h 21.65062 c 0.85869,-0.001 1.67149,0.38412 2.21554,1.04747 0.54405,0.66334 0.76167,1.53645 0.59387,2.37678 z m 0,0"
             style="fill:#283593;fill-opacity:1;stroke-width:0.33560771" />
          <path
             id="path8466"
             d="m 244.79716,182.05525 -1.07893,8.59208 c -0.16781,1.3385 -0.90588,2.30206 -1.76194,2.30206 h -11.43164 c -0.85606,0 -1.59414,-0.96356 -1.76194,-2.30206 l -1.07762,-8.59208 c -0.22286,-1.77112 0.62796,-3.42425 1.76194,-3.42425 h 13.58687 c 1.1353,0 1.98481,1.65313 1.76326,3.42425 z m 0,0"
             style="fill:#3f51b5;fill-opacity:1;stroke-width:0.33560771" />
          <path
             id="path8468"
             d="m 293.51795,263.59088 v 4.77323 c -0.29496,2.88413 -2.83824,5.00396 -5.72761,4.77323 h -97.37081 c -2.88937,0.23073 -5.43396,-1.8891 -5.72761,-4.77323 v -4.77323 c 0.29365,-2.88282 2.83824,-5.00265 5.72761,-4.77324 h 97.37081 c 2.88937,-0.22941 5.43265,1.89042 5.72761,4.77324 z m 0,0"
             style="fill:#283593;stroke-width:0.33560771" />
          <g
             id="g8476"
             style="fill:#3f51b5"
             transform="matrix(0.3356077,0,0,0.3356077,181.82745,175.76654)">
            <path
               id="path8470"
               d="m 307.19922,179.19922 v 17.0664 c 0.33203,9.03907 -6.6836,16.65625 -15.71875,17.06641 H 24.253906 C 15.21875,212.92187 8.203125,205.30469 8.535156,196.26562 v -17.0664 c -0.332031,-9.03906 6.683594,-16.65235 15.71875,-17.06641 H 291.48047 c 9.03515,0.41406 16.05078,8.02735 15.71875,17.06641 z m 0,0"
               style="fill:#3f51b5;fill-opacity:1" />
            <path
               id="path8472"
               d="M 25.601562,418.13281 H 290.13281 c 9.42578,0 17.06641,7.64063 17.06641,17.06641 v 17.0664 c 0,9.42579 -7.64063,17.06641 -17.06641,17.06641 H 25.601562 c -9.425781,0 -17.066406,-7.64062 -17.066406,-17.06641 v -17.0664 c 0,-9.42578 7.640625,-17.06641 17.066406,-17.06641 z m 0,0" />
            <path
               id="path8474"
               d="m 307.19922,261.6875 v 14.22266 c -0.45703,8.24609 -7.46485,14.58984 -15.71875,14.22265 H 24.253906 C 16,290.5 8.992188,284.15625 8.535156,275.91016 V 261.6875 C 8.992188,253.44141 16,247.09766 24.253906,247.46484 H 291.48047 c 8.2539,-0.36718 15.26172,5.97657 15.71875,14.22266 z m 0,0" />
          </g>
          <path
             id="path8478"
             d="m 287.79034,250.22688 h -97.37081 c -4.74308,-0.005 -8.58683,-3.84901 -8.59208,-8.59209 v -5.72761 c 0.005,-4.74308 3.849,-8.58553 8.59208,-8.59078 h 97.37081 c 4.74308,0.005 8.58553,3.8477 8.59077,8.59078 v 5.72761 c -0.005,4.74308 -3.84769,8.58684 -8.59077,8.59209 z m -97.37081,-17.18286 c -1.58234,0 -2.86315,1.28213 -2.86446,2.86316 v 5.72761 c 0.001,1.58103 1.28212,2.86315 2.86446,2.86447 h 97.37081 c 1.58102,-0.001 2.86315,-1.28344 2.86315,-2.86447 v -5.72761 c 0,-1.58103 -1.28213,-2.86316 -2.86315,-2.86316 z m 0,0"
             style="stroke-width:0.33560771" />
          <path
             id="path8480"
             d="m 207.60238,276.00181 h -17.18285 c -4.74308,-0.005 -8.58683,-3.849 -8.59208,-8.59208 v -2.86316 c 0.005,-4.74308 3.849,-8.58683 8.59208,-8.59208 h 17.18285 c 1.58103,0 2.86316,1.28213 2.86316,2.86315 0,1.58234 -1.28213,2.86447 -2.86316,2.86447 h -17.18285 c -1.58234,10e-4 -2.86315,1.28212 -2.86446,2.86446 v 2.86316 c 0.001,1.58102 1.28212,2.86315 2.86446,2.86446 h 17.18285 c 1.58103,0 2.86316,1.28213 2.86316,2.86315 0,1.58234 -1.28213,2.86447 -2.86316,2.86447 z m 0,0"
             style="stroke-width:0.33560771" />
          <path
             id="path8482"
             d="m 287.79034,276.00181 h -31.50255 c -1.58234,0 -2.86447,-1.28213 -2.86447,-2.86447 0,-1.58102 1.28213,-2.86315 2.86447,-2.86315 h 31.50255 c 1.58102,-10e-4 2.86315,-1.28344 2.86315,-2.86446 v -2.86316 c 0,-1.58234 -1.28213,-2.86315 -2.86315,-2.86446 h -51.54987 c -1.58103,0 -2.86315,-1.28213 -2.86315,-2.86447 0,-1.58102 1.28212,-2.86315 2.86315,-2.86315 h 51.54987 c 4.74308,0.005 8.58553,3.849 8.59077,8.59208 v 2.86316 c -0.005,4.74308 -3.84769,8.58683 -8.59077,8.59208 z m 0,0"
             style="stroke-width:0.33560771" />
          <path
             id="path8484"
             d="m 287.79034,336.14245 h -97.37081 c -4.74308,-0.005 -8.58683,-3.849 -8.59208,-8.59209 v -5.72761 c 0.005,-4.74308 3.849,-8.58553 8.59208,-8.59077 h 97.37081 c 4.74308,0.005 8.58553,3.84769 8.59077,8.59077 v 5.72761 c -0.005,4.74309 -3.84769,8.58684 -8.59077,8.59209 z m -97.37081,-17.18286 c -1.58234,0 -2.86315,1.28213 -2.86446,2.86316 v 5.72761 c 0.001,1.58103 1.28212,2.86316 2.86446,2.86447 h 97.37081 c 1.58102,-10e-4 2.86315,-1.28344 2.86315,-2.86447 v -5.72761 c 0,-1.58103 -1.28213,-2.86316 -2.86315,-2.86316 z m 0,0"
             style="stroke-width:0.33560771" />
          <path
             id="path8486"
             d="m 287.79034,318.95959 c -1.58234,0 -2.86447,-1.28212 -2.86447,-2.86446 v -42.95779 c 0,-1.58102 1.28213,-2.86315 2.86447,-2.86315 1.58102,0 2.86315,1.28213 2.86315,2.86315 v 42.95779 c 0,1.58234 -1.28213,2.86446 -2.86315,2.86446 z m 0,0"
             style="stroke-width:0.33560771" />
          <path
             id="path8488"
             d="m 190.41953,318.95959 c -1.58234,0 -2.86446,-1.28212 -2.86446,-2.86446 v -42.95779 c 0,-1.58102 1.28212,-2.86315 2.86446,-2.86315 1.58103,0 2.86315,1.28213 2.86315,2.86315 v 42.95779 c 0,1.58234 -1.28212,2.86446 -2.86315,2.86446 z m 0,0"
             style="stroke-width:0.33560771" />
          <path
             id="path8490"
             d="m 287.79034,233.04402 h -97.37081 c -1.58234,0 -2.86446,-1.28212 -2.86446,-2.86446 0,-1.58103 1.28212,-2.86316 2.86446,-2.86316 h 97.37081 c 1.58102,0 2.86315,1.28213 2.86315,2.86316 0,1.58234 -1.28213,2.86446 -2.86315,2.86446 z m 0,0"
             style="stroke-width:0.33560771" />
          <path
             id="path8492"
             d="m 287.79034,261.68211 c -1.58234,0 -2.86447,-1.28213 -2.86447,-2.86447 v -11.45523 c 0,-1.58103 1.28213,-2.86315 2.86447,-2.86315 1.58102,0 2.86315,1.28212 2.86315,2.86315 v 11.45523 c 0,1.58234 -1.28213,2.86447 -2.86315,2.86447 z m 0,0"
             style="stroke-width:0.33560771" />
          <path
             id="path8494"
             d="m 190.41953,261.68211 c -1.58234,0 -2.86446,-1.28213 -2.86446,-2.86447 v -11.45523 c 0,-1.58103 1.28212,-2.86315 2.86446,-2.86315 1.58103,0 2.86315,1.28212 2.86315,2.86315 v 11.45523 c 0,1.58234 -1.28212,2.86447 -2.86315,2.86447 z m 0,0"
             style="stroke-width:0.33560771" />
          <path
             id="path8496"
             d="m 276.3351,347.59768 h -74.46033 c -7.90514,-0.009 -14.31053,-6.41456 -14.3197,-14.3197 0,-1.58103 1.28212,-2.86315 2.86446,-2.86315 1.58103,0 2.86315,1.28212 2.86315,2.86315 0.005,4.74308 3.849,8.58684 8.59209,8.59208 h 74.46033 c 4.74177,-0.005 8.58553,-3.849 8.59077,-8.59208 0,-1.58103 1.28213,-2.86315 2.86447,-2.86315 1.58102,0 2.86315,1.28212 2.86315,2.86315 -0.009,7.90514 -6.41457,14.31052 -14.31839,14.3197 z m 0,0"
             style="stroke-width:0.33560771" />
          <path
             id="path8498"
             d="m 287.79034,233.04402 h -97.37081 c -1.58234,0 -2.86446,-1.28212 -2.86446,-2.86446 0.0131,-8.07556 5.08655,-15.2754 12.68754,-18.00483 l 18.52266,-6.61121 c 5.32122,-1.91401 8.87394,-6.95862 8.88443,-12.61413 0,-1.58103 1.28213,-2.86315 2.86315,-2.86315 h 17.18285 c 1.58234,0 2.86447,1.28212 2.86447,2.86315 0.009,5.65683 3.56321,10.70143 8.88705,12.61413 l 18.51741,6.61121 c 7.601,2.72812 12.67575,9.92927 12.68886,18.00483 0,1.58234 -1.28213,2.86446 -2.86315,2.86446 z m -94.19695,-5.72762 h 91.02178 c -0.99371,-4.50841 -4.23311,-8.18961 -8.57635,-9.74966 l -18.51741,-6.61121 c -6.62039,-2.3781 -11.40804,-8.18961 -12.47386,-15.14168 h -11.88523 c -1.06582,6.95207 -5.85216,12.76358 -12.47255,15.14168 l -18.52266,6.61121 c -4.34192,1.56136 -7.58001,5.24256 -8.57372,9.74966 z m 0,0"
             style="stroke-width:0.33560771" />
          <path
             id="path8500"
             d="m 248.21354,195.81385 h -18.21852 c -2.7255,-0.008 -5.07213,-1.92974 -5.61487,-4.60149 l -1.71868,-8.59339 c -0.33692,-1.68329 0.0983,-3.42818 1.18642,-4.75619 1.08811,-1.3267 2.71502,-2.09624 4.43108,-2.09624 h 21.65062 c 1.71606,0 3.34166,0.76954 4.42976,2.09755 1.08811,1.3267 1.52335,3.07159 1.18643,4.75488 l -1.71868,8.59077 c -0.54143,2.67175 -2.88675,4.59494 -5.61356,4.60411 z m 1.71868,-14.32494 -21.65325,0.005 1.71867,8.59208 h 18.21852 l 1.71737,-8.59208 z m 0,0"
             style="fill:#000000;fill-opacity:1;stroke-width:0.33560771" />
          <path
             id="path8502"
             d="m 201.87477,287.45704 c -0.76167,0.007 -1.49451,-0.29234 -2.03331,-0.83115 -0.25302,-0.27793 -0.45622,-0.5978 -0.60174,-0.94521 -0.16125,-0.33954 -0.23991,-0.71185 -0.22942,-1.0881 0.0105,-0.75774 0.30677,-1.48402 0.83116,-2.03331 0.82197,-0.81411 2.05428,-1.0514 3.12141,-0.60174 0.34609,0.14683 0.66597,0.35003 0.94521,0.60174 0.52176,0.54929 0.81935,1.27557 0.82984,2.03331 -0.004,0.37493 -0.0826,0.74463 -0.22811,1.0881 -0.14683,0.34741 -0.35003,0.66728 -0.60173,0.94521 -0.54012,0.5375 -1.27164,0.83771 -2.03331,0.83115 z m 0,0"
             style="stroke-width:0.33560771" />
          <path
             id="path8504"
             d="m 201.87477,307.50436 c -1.58234,0 -2.86447,-1.28344 -2.86447,-2.86447 v -11.45523 c 0,-1.58234 1.28213,-2.86446 2.86447,-2.86446 1.58102,0 2.86315,1.28212 2.86315,2.86446 v 11.45523 c 0,1.58103 -1.28213,2.86447 -2.86315,2.86447 z m 0,0"
             style="stroke-width:0.33560771" />
        </g>
      </g>
    </g>
  </g>
</svg>
